<?xml version="1.0" encoding="utf-8"?>
<?xml-stylesheet type="text/xsl" href="rss1.xsl"?>
<rss version="2.0" xmlns:atom="http://www.w3.org/2005/Atom" xmlns:content="http://purl.org/rss/1.0/modules/content/" xmlns:dc="http://purl.org/dc/elements/1.1/" xmlns:media="http://search.yahoo.com/mrss/">
<channel>
 <title>Getty</title>
 <link>http://www.gettyimg.com/</link>
 <atom:link href="http://www.gettyimg.com/" rel="self" type="application/rss+xml" />

 
                <item>
                <title><![CDATA[【Music Videos】Victoria Justice - Freak The Freak Out (Version 1) (720p HD)]]></title>
                <link><![CDATA[https://sharemania.us/threads/victoria-justice-freak-the-freak-out-version-1-720p-hd.242925/]]></link>
                <description><![CDATA[<article>
<blockquote class="messageText SelectQuoteContainer ugc baseHtml">
<img src="https://i.imgur.com/NFXY84Q.jpeg" class="bbCodeImage LbImage" alt="[​IMG]" data-url="https://i.imgur.com/NFXY84Q.jpeg" style=""> <br>
<b>Victoria Justice - Freak The Freak Out (Version 1) (720p HD)</b><br>
<div class="ToggleTriggerAnchor bbCodeSpoilerContainer">
<button type="button" class="button bbCodeSpoilerButton ToggleTrigger Tooltip JsOnly" data-target="> .SpoilerTarget"><span>Spoiler: <span class="SpoilerTitle">Media Info</span></span></button>
<div class="SpoilerTarget bbCodeSpoilerText">General<br>
Format : AVI<br>
Format/Info : Audio Video Interleave<br>
File size : 231 MiB<br>
Duration : 3 min 24 s<br>
Overall bit rate : 9 498 kb/s<br>
Writing application : Lavf52.93.0<br>
<br>
Video<br>
ID : 0<br>
Format : MPEG-4 Visual<br>
Format profile : Simple@L1<br>
Format settings, BVOP : No<br>
Format settings, QPel : No<br>
Format settings, GMC : No warppoints<br>
Format settings, Matrix : Default (H.263)<br>
Codec ID : DIVX<br>
Codec ID/Info : Project Mayo<br>
Codec ID/Hint : DivX 4<br>
Duration : 3 min 24 s<br>
Bit rate : 9 358 kb/s<br>
Width : 1 280 pixels<br>
Height : 720 pixels<br>
Display aspect ratio : 16:9<br>
Frame rate : 29.970 (30000/1001) FPS<br>
Color space : YUV<br>
Chroma subsampling : 4:2:0<br>
Bit depth : 8 bits<br>
Scan type : Progressive<br>
Compression mode : Lossy<br>
Bits/(Pixel*Frame) : 0.339<br>
Stream size : 228 MiB (99%)<br>
Writing library : Lavc52.108.0<br>
<br>
Audio<br>
ID : 1<br>
Format : MPEG Audio<br>
Format version : Version 1<br>
Format profile : Layer 3<br>
Mode : Joint stereo<br>
Mode extension : MS Stereo<br>
Codec ID : 55<br>
Codec ID/Hint : MP3<br>
Duration : 3 min 24 s<br>
Bit rate mode : Constant<br>
Bit rate : 128 kb/s<br>
Channel(s) : 2 channels<br>
Sampling rate : 44.1 kHz<br>
Compression mode : Lossy<br>
Stream size : 3.12 MiB (1%)<br>
Alignment : Aligned on interleaves<br>
Interleave, duration : 26 ms (0.78 video frame)<br>
Interleave, preload duration : 26 ms</div>
</div><br>
<b>[/URL]
<div class="bbCodeBlock bbCodeVfcHH HiddenContent">
<div class="attribution type">Hidden Content:</div>
<blockquote>You must reply before you can see the hidden data contained here.</blockquote>
</div></b>
<div class="messageTextEndMarker">&nbsp;</div>
</blockquote>
</article>]]></description>
                <author><![CDATA[gamerfronts]]></author>
                </item>

                
                <item>
                <title><![CDATA[【Actresses】Christi Shake - Video Calendar (2003)720p]]></title>
                <link><![CDATA[https://sharemania.us/threads/christi-shake-video-calendar-2003-720p.242927/]]></link>
                <description><![CDATA[<article>
<blockquote class="messageText SelectQuoteContainer ugc baseHtml">
Christi Shake - Video Calendar (2003)720p<br>
<br>
<a href="https://imgbox.com/QDFPSKVm" target="_blank" class="externalLink" rel="nofollow"><img src="https://thumbs2.imgbox.com/6d/1e/QDFPSKVm_t.jpg" class="bbCodeImage LbImage" alt="[​IMG]" data-url="https://thumbs2.imgbox.com/6d/1e/QDFPSKVm_t.jpg"></a> <a href="https://imgbox.com/uHyPfBXc" target="_blank" class="externalLink" rel="nofollow"><img src="https://thumbs2.imgbox.com/ae/f1/uHyPfBXc_t.jpg" class="bbCodeImage LbImage" alt="[​IMG]" data-url="https://thumbs2.imgbox.com/ae/f1/uHyPfBXc_t.jpg"></a> <a href="https://imgbox.com/nwV7SPpC" target="_blank" class="externalLink" rel="nofollow"><img src="https://thumbs2.imgbox.com/3b/08/nwV7SPpC_t.jpg" class="bbCodeImage LbImage" alt="[​IMG]" data-url="https://thumbs2.imgbox.com/3b/08/nwV7SPpC_t.jpg"></a> <a href="https://imgbox.com/2O4RoHBX" target="_blank" class="externalLink" rel="nofollow"><img src="https://thumbs2.imgbox.com/13/36/2O4RoHBX_t.jpg" class="bbCodeImage LbImage" alt="[​IMG]" data-url="https://thumbs2.imgbox.com/13/36/2O4RoHBX_t.jpg"></a> <a href="https://imgbox.com/uao8XT2J" target="_blank" class="externalLink" rel="nofollow"><img src="https://thumbs2.imgbox.com/15/88/uao8XT2J_t.jpg" class="bbCodeImage LbImage" alt="[​IMG]" data-url="https://thumbs2.imgbox.com/15/88/uao8XT2J_t.jpg"></a> <a href="https://imgbox.com/dTVBtoTN" target="_blank" class="externalLink" rel="nofollow"><img src="https://thumbs2.imgbox.com/69/47/dTVBtoTN_t.jpg" class="bbCodeImage LbImage" alt="[​IMG]" data-url="https://thumbs2.imgbox.com/69/47/dTVBtoTN_t.jpg"></a><br>
Duration: 0:05:49 Resolution: 1280x720 Format: mp4 Size: 115.8 MB<br>
<a href="https://filejoker.net/00sbiokvxvh2" target="_blank" class="externalLink" rel="nofollow">https://filejoker.net/00sbiokvxvh2</a>
<div class="messageTextEndMarker">&nbsp;</div>
</blockquote>
</article>]]></description>
                <author><![CDATA[piqeros]]></author>
                </item>

                
                <item>
                <title><![CDATA[【Requests】[REQ AUD] - 2x FLAC 24/16 BITS]]></title>
                <link><![CDATA[https://sharemania.us/threads/2x-flac-24-16-bits.242926/]]></link>
                <description><![CDATA[<article>
<blockquote class="messageText SelectQuoteContainer ugc baseHtml">
Heyy, can someone pls share these in flac 24/16bits (whatever is available)<br>
<br>
● Jae Stephens - WET - Single<br>
<a href="https://tidal.com/browse/album/357796605" target="_blank" class="externalLink" rel="nofollow">https://tidal.com/browse/album/357796605</a><br>
● PHANTASEA - Bluff<br>
<a href="https://music.apple.com/us/album/bluff-single/1739844741" target="_blank" class="externalLink" rel="nofollow">https://music.apple.com/us/album/bluff-single/1739844741</a>
<div class="messageTextEndMarker">&nbsp;</div>
</blockquote>
</article>]]></description>
                <author><![CDATA[alo5h]]></author>
                </item>

                </channel></rss>